<?xml version="1.0" encoding="utf-8"?>
<!-- Generator: Adobe Illustrator 27.2.0, SVG Export Plug-In . SVG Version: 6.00 Build 0)  -->
<svg version="1.1" id="Ebene_1" xmlns="http://www.w3.org/2000/svg" xmlns:xlink="http://www.w3.org/1999/xlink" x="0px" y="0px"
	 viewBox="0 0 392.39 160.37" style="enable-background:new 0 0 392.39 160.37;" xml:space="preserve">
<style type="text/css">
	.st0{fill:#3C3C3B;}
	.st1{fill:#706F6F;}
	.st2{fill:#00526A;}
	.st3{fill:#00526A;fill-opacity:0.7;}
	.st4{fill:#00526A;fill-opacity:0.55;}
	.st5{fill:#00526A;fill-opacity:0.45;}
	.st6{fill:#00526A;fill-opacity:0.35;}
	.st7{fill:#00526A;fill-opacity:0.25;}
	.st8{fill:#00526A;fill-opacity:0.2;}
	.st9{fill:#00526A;fill-opacity:0.17;}
	.st10{fill:#00526A;fill-opacity:0.14;}
	.st11{fill:#00526A;fill-opacity:0.11;}
</style>
<g>
	<g>
		<path class="st0" d="M46.67,21.26c-3.44-2.87-7.84-4.78-12.42-4.78c-3.44,0-8.03,2.01-8.03,6.02c0,4.2,5.06,5.83,8.31,6.88
			l4.78,1.43c10.03,2.96,17.77,8.03,17.77,19.68c0,7.17-1.72,14.52-7.45,19.4c-5.64,4.78-13.19,6.78-20.45,6.78
			c-9.08,0-17.96-3.06-25.32-8.22l8.03-15.1c4.68,4.11,10.22,7.45,16.63,7.45c4.4,0,9.08-2.2,9.08-7.26c0-5.25-7.36-7.07-11.37-8.22
			c-11.75-3.34-19.49-6.4-19.49-20.35c0-14.62,10.42-24.17,24.84-24.17c7.26,0,16.15,2.29,22.55,5.92L46.67,21.26z"/>
		<path class="st0" d="M99.99,18.58v12.04h20.54v15.86H99.99v28.28H81.27V2.72h41.37v15.86H99.99z"/>
		<path class="st0" d="M148.34,74.77V2.72h26.75c12.8,0,21.4,4.97,21.4,18.73c0,6.5-2.1,11.75-7.93,14.71v0.19
			c10.32,1.34,14.72,8.31,14.72,18.35c0,15.1-12.9,20.07-26.09,20.07H148.34z M167.07,31h2.1c4.97,0,10.13-0.86,10.13-6.98
			c0-6.59-5.83-6.98-10.89-6.98h-1.34V31z M167.07,60.43h2.39c5.54,0,14.91,0.29,14.91-7.64c0-8.7-9.27-7.83-15.38-7.83h-1.91V60.43
			z"/>
	</g>
	<g>
		<path class="st1" d="M237.12,70.28l14.81-20.93l-0.19-0.19c-1.63,0.67-3.63,1.05-5.64,1.05c-13.19,0-21.4-11.47-21.4-23.89
			c0-14.91,10.61-25.51,25.42-25.51c14.24,0,25.23,10.03,25.23,24.56c0,8.6-4.11,17.1-8.79,24.08l-19.11,28.38L237.12,70.28z
			 M238.84,25.75c0,6.5,4.3,13.47,11.37,13.47c7.07,0,11.47-6.98,11.47-13.47c0-6.5-4.39-13.47-11.47-13.47
			C243.14,12.28,238.84,19.25,238.84,25.75z"/>
	</g>
	<g>
		<path class="st1" d="M342.8,38.84c0,15.38-6.69,37.84-25.8,37.84c-19.11,0-25.8-22.45-25.8-37.84c0-15.48,6.5-38.03,25.8-38.03
			C336.31,0.81,342.8,23.36,342.8,38.84z M304.97,38.65c0,7.17,2.1,25.8,12.04,25.8c10.03,0,12.04-18.63,12.04-25.8
			c0-7.26-2.01-25.61-12.04-25.61C307.07,13.04,304.97,31.39,304.97,38.65z"/>
	</g>
	<g>
		<path class="st1" d="M366.59,14.95V2.72h23.51v72.04h-14.05V14.95H366.59z"/>
	</g>
	<g>
		<path class="st0" d="M24.5,148.21c0,6.76-5.34,11.86-11.92,11.86c-6.58,0-11.92-5.1-11.92-11.86c0-6.52,5.4-11.86,11.92-11.86
			C19.1,136.35,24.5,141.69,24.5,148.21z M21.66,148.21c0-5.01-3.74-9.2-9.08-9.2c-5.34,0-9.08,4.19-9.08,9.2
			c0,5.19,4.16,9.2,9.08,9.2C17.5,157.41,21.66,153.4,21.66,148.21z"/>
		<path class="st0" d="M28.48,135.75l17.07,17.89v-16.8h2.84v23.68l-17.07-17.89v16.95h-2.84V135.75z"/>
	</g>
	<g>
		<path class="st0" d="M65.37,148.78v2.26h-6.61v-2.26H65.37z"/>
	</g>
	<g>
		<path class="st0" d="M82.14,159.58H79.3v-20.15h-5.4v-2.59h13.64v2.59h-5.4V159.58z"/>
		<path class="st0" d="M104.71,146v-9.17h2.84v22.75h-2.84v-10.92H93.88v10.92h-2.84v-22.75h2.84V146H104.71z"/>
		<path class="st0" d="M113.15,136.83h12.22v2.59h-9.38v6.37h9.11v2.59h-9.11v8.6h9.38v2.59h-12.22V136.83z"/>
	</g>
	<g>
		<path class="st0" d="M141.83,148.78v2.26h-6.61v-2.26H141.83z"/>
	</g>
	<g>
		<path class="st0" d="M155.27,139.43v6.4h7.9v2.59h-7.9v11.16h-2.84v-22.75h11.01v2.59H155.27z"/>
		<path class="st0" d="M171.11,156.98h6.91v2.59h-9.74v-22.75h2.84V156.98z"/>
	</g>
	<g>
		<path class="st0" d="M177.85,136.83h3.26l5.58,9.71l5.58-9.71h3.26l-7.42,12.85v9.89h-2.84v-9.89L177.85,136.83z"/>
		<path class="st0" d="M225.79,141.18c-1.63-1.45-3.86-2.23-6-2.23c-5.1,0-8.99,4.25-8.99,9.29c0,4.98,3.86,9.23,8.93,9.23
			c2.23,0,4.37-0.84,6.06-2.35v3.35c-1.75,1.03-3.98,1.6-5.97,1.6c-6.49,0-11.86-5.16-11.86-11.73c0-6.73,5.4-11.98,12.1-11.98
			c1.99,0,4.01,0.48,5.73,1.54V141.18z"/>
		<path class="st0" d="M252.91,148.21c0,6.76-5.34,11.86-11.92,11.86c-6.58,0-11.92-5.1-11.92-11.86c0-6.52,5.4-11.86,11.92-11.86
			C247.51,136.35,252.91,141.69,252.91,148.21z M250.07,148.21c0-5.01-3.74-9.2-9.08-9.2c-5.34,0-9.08,4.19-9.08,9.2
			c0,5.19,4.16,9.2,9.08,9.2C245.91,157.41,250.07,153.4,250.07,148.21z"/>
		<path class="st0" d="M261.03,144.56h-0.06l-2.65,15.02h-2.93l4.65-23.71l7.81,17.92l7.81-17.92l4.65,23.71h-2.93l-2.66-15.02
			h-0.06l-6.82,15.51L261.03,144.56z"/>
		<path class="st0" d="M287.19,159.58h-2.84v-22.75h3.26c7,0,9.17,2.41,9.17,6.58c0,4.8-3.65,6.64-7.96,6.64h-1.63V159.58z
			 M287.19,147.51h0.91c2.9,0,6.03-0.54,6.03-4.16c0-3.56-3.38-3.98-6.18-3.98h-0.75V147.51z"/>
		<path class="st0" d="M303.24,136.83v13.42c0,3.71,1.12,7.15,5.49,7.15c4.38,0,5.49-3.44,5.49-7.15v-13.42h2.84v14.39
			c0,5.01-3.11,8.84-8.33,8.84c-5.22,0-8.33-3.83-8.33-8.84v-14.39H303.24z"/>
		<path class="st0" d="M328.61,159.58h-2.84v-20.15h-5.4v-2.59h13.63v2.59h-5.4V159.58z"/>
		<path class="st0" d="M340.5,159.58h-2.84v-22.75h2.84V159.58z"/>
		<path class="st0" d="M345.99,135.75l17.07,17.89v-16.8h2.84v23.68l-17.07-17.89v16.95h-2.84V135.75z"/>
		<path class="st0" d="M392.18,148.12v0.9c0,6.25-4.4,11.04-10.77,11.04c-6.37,0-11.49-5.49-11.49-11.79
			c0-6.55,5.25-11.92,11.79-11.92c3.53,0,7.03,1.6,9.26,4.4l-1.99,1.9c-1.63-2.23-4.38-3.71-7.15-3.71c-5.1,0-9.08,4.13-9.08,9.23
			c0,4.77,3.92,9.29,8.84,9.29c3.53,0,7.33-3.05,7.45-6.76h-5.88v-2.59H392.18z"/>
	</g>
	<polygon class="st2" points="2.18,91.52 2.18,120.06 30.73,120.06 30.73,91.52 2.18,91.52 	"/>
	<polygon class="st3" points="42.15,91.52 42.15,120.06 70.69,120.06 70.69,91.52 42.15,91.52 	"/>
	<polygon class="st4" points="82.11,91.52 82.11,120.06 110.65,120.06 110.65,91.52 82.11,91.52 	"/>
	<polygon class="st5" points="122.07,91.52 122.07,120.06 150.61,120.06 150.61,91.52 122.07,91.52 	"/>
	<polygon class="st6" points="162.03,91.52 162.03,120.06 190.57,120.06 190.57,91.52 162.03,91.52 	"/>
	<polygon class="st7" points="201.99,91.52 201.99,120.06 230.53,120.06 230.53,91.52 201.99,91.52 	"/>
	<polygon class="st8" points="241.95,91.52 241.95,120.06 270.5,120.06 270.5,91.52 241.95,91.52 	"/>
	<polygon class="st9" points="281.92,91.52 281.92,120.06 310.46,120.06 310.46,91.52 281.92,91.52 	"/>
	<polygon class="st10" points="321.88,91.52 321.88,120.06 350.42,120.06 350.42,91.52 321.88,91.52 	"/>
	<polygon class="st11" points="361.84,91.52 361.84,120.06 390.38,120.06 390.38,91.52 361.84,91.52 	"/>
</g>
</svg>
