<?xml version="1.0" encoding="UTF-8" standalone="no"?>
<svg
   xmlns:dc="http://purl.org/dc/elements/1.1/"
   xmlns:cc="http://creativecommons.org/ns#"
   xmlns:rdf="http://www.w3.org/1999/02/22-rdf-syntax-ns#"
   xmlns:svg="http://www.w3.org/2000/svg"
   xmlns="http://www.w3.org/2000/svg"
   viewBox="0 0 755.90668 377.94666"
   height="377.94666"
   width="755.90668"
   xml:space="preserve"
   id="svg2"
   version="1.1"><metadata
     id="metadata8"><rdf:RDF><cc:Work
         rdf:about=""><dc:format>image/svg+xml</dc:format><dc:type
           rdf:resource="http://purl.org/dc/dcmitype/StillImage" /></cc:Work></rdf:RDF></metadata><defs
     id="defs6"><clipPath
       id="clipPath18"
       clipPathUnits="userSpaceOnUse"><path
         id="path16"
         d="M 0,283.46 H 566.93 V 0 H 0 Z" /></clipPath><clipPath
       id="clipPath122"
       clipPathUnits="userSpaceOnUse"><path
         id="path120"
         d="m 130.754,134.179 h 28.544 v -28.545 h -28.544 z" /></clipPath><clipPath
       id="clipPath136"
       clipPathUnits="userSpaceOnUse"><path
         id="path134"
         d="M 170.716,134.179 H 199.26 V 105.634 H 170.716 Z" /></clipPath><clipPath
       id="clipPath150"
       clipPathUnits="userSpaceOnUse"><path
         id="path148"
         d="M 210.676,134.179 H 239.22 V 105.634 H 210.676 Z" /></clipPath><clipPath
       id="clipPath164"
       clipPathUnits="userSpaceOnUse"><path
         id="path162"
         d="m 250.638,134.179 h 28.544 v -28.545 h -28.544 z" /></clipPath><clipPath
       id="clipPath178"
       clipPathUnits="userSpaceOnUse"><path
         id="path176"
         d="m 290.6,134.179 h 28.543 V 105.634 H 290.6 Z" /></clipPath><clipPath
       id="clipPath192"
       clipPathUnits="userSpaceOnUse"><path
         id="path190"
         d="m 330.561,134.179 h 28.544 v -28.545 h -28.544 z" /></clipPath><clipPath
       id="clipPath206"
       clipPathUnits="userSpaceOnUse"><path
         id="path204"
         d="m 370.523,134.179 h 28.545 v -28.545 h -28.545 z" /></clipPath><clipPath
       id="clipPath220"
       clipPathUnits="userSpaceOnUse"><path
         id="path218"
         d="m 410.486,134.179 h 28.543 v -28.545 h -28.543 z" /></clipPath><clipPath
       id="clipPath234"
       clipPathUnits="userSpaceOnUse"><path
         id="path232"
         d="M 450.445,134.179 H 478.99 V 105.634 H 450.445 Z" /></clipPath></defs><g
     transform="matrix(1.3333333,0,0,-1.3333333,0,377.94667)"
     id="g10"><g
       id="g12"><g
         clip-path="url(#clipPath18)"
         id="g14"><g
           transform="translate(135.2808,204.4399)"
           id="g20"><path
             id="path22"
             style="fill:#393536;fill-opacity:1;fill-rule:nonzero;stroke:none"
             d="m 0,0 c -3.44,2.867 -7.835,4.777 -12.422,4.777 -3.44,0 -8.026,-2.006 -8.026,-6.019 0,-4.204 5.064,-5.829 8.313,-6.88 l 4.778,-1.433 c 10.032,-2.962 17.772,-8.027 17.772,-19.683 0,-7.167 -1.72,-14.524 -7.453,-19.397 -5.638,-4.778 -13.186,-6.784 -20.448,-6.784 -9.077,0 -17.963,3.057 -25.321,8.217 l 8.026,15.097 c 4.682,-4.109 10.224,-7.453 16.626,-7.453 4.396,0 9.077,2.198 9.077,7.262 0,5.255 -7.357,7.071 -11.37,8.217 -11.753,3.345 -19.492,6.402 -19.492,20.352 0,14.62 10.415,24.175 24.843,24.175 7.262,0 16.148,-2.293 22.55,-5.924 z" /></g><g
           transform="translate(188.6016,207.1152)"
           id="g24"><path
             id="path26"
             style="fill:#393536;fill-opacity:1;fill-rule:nonzero;stroke:none"
             d="M 0,0 V -12.039 H 20.543 V -27.9 H 0 V -56.184 H -18.728 V 15.861 H 22.646 V 0 Z" /></g><g
           transform="translate(255.6807,165.2642)"
           id="g28"><path
             id="path30"
             style="fill:#393536;fill-opacity:1;fill-rule:nonzero;stroke:none"
             d="m 0,0 h 2.389 c 5.542,0 14.905,-0.287 14.905,7.644 0,8.695 -9.268,7.835 -15.383,7.835 H 0 Z m 0,29.43 h 2.102 c 4.969,0 10.128,0.86 10.128,6.975 0,6.593 -5.828,6.975 -10.893,6.975 H 0 Z M -18.728,-14.333 V 57.712 H 8.026 c 12.804,0 21.404,-4.968 21.404,-18.727 0,-6.498 -2.103,-11.753 -7.931,-14.715 v -0.191 c 10.319,-1.338 14.715,-8.313 14.715,-18.346 0,-15.097 -12.9,-20.066 -26.086,-20.066 z" /></g><g
           transform="translate(327.4521,199.9492)"
           id="g32"><path
             id="path34"
             style="fill:#656263;fill-opacity:1;fill-rule:nonzero;stroke:none"
             d="m 0,0 c 0,-6.498 4.3,-13.473 11.37,-13.473 7.071,0 11.466,6.975 11.466,13.473 0,6.497 -4.395,13.473 -11.466,13.473 C 4.3,13.473 0,6.497 0,0 m -1.72,-44.527 14.81,20.926 -0.191,0.191 c -1.625,-0.669 -3.63,-1.051 -5.637,-1.051 -13.187,0 -21.404,11.466 -21.404,23.888 0,14.906 10.607,25.511 25.416,25.511 14.238,0 25.226,-10.032 25.226,-24.556 0,-8.599 -4.108,-17.104 -8.79,-24.079 L 8.6,-52.075 Z" /></g><g
           transform="translate(393.5732,187.0498)"
           id="g36"><path
             id="path38"
             style="fill:#656263;fill-opacity:1;fill-rule:nonzero;stroke:none"
             d="m 0,0 c 0,-7.167 2.102,-25.799 12.039,-25.799 10.032,0 12.039,18.632 12.039,25.799 0,7.262 -2.007,25.607 -12.039,25.607 C 2.102,25.607 0,7.262 0,0 m 37.838,-0.191 c 0,-15.384 -6.689,-37.838 -25.799,-37.838 -19.11,0 -25.799,22.454 -25.799,37.838 0,15.479 6.497,38.029 25.799,38.029 19.301,0 25.799,-22.55 25.799,-38.029" /></g><g
           transform="translate(455.1963,210.7461)"
           id="g40"><path
             id="path42"
             style="fill:#656263;fill-opacity:1;fill-rule:nonzero;stroke:none"
             d="M 0,0 V 12.23 H 23.506 V -59.814 H 9.46 V 0 Z" /></g><g
           transform="translate(110.2705,77.4922)"
           id="g44"><path
             id="path46"
             style="fill:#393536;fill-opacity:1;fill-rule:nonzero;stroke:none"
             d="m 0,0 c 0,5.008 -3.741,9.2 -9.081,9.2 -5.339,0 -9.08,-4.192 -9.08,-9.2 0,-5.188 4.163,-9.201 9.08,-9.201 C -4.163,-9.201 0,-5.188 0,0 m 2.835,0 c 0,-6.758 -5.339,-11.855 -11.916,-11.855 -6.576,0 -11.915,5.097 -11.915,11.855 0,6.516 5.4,11.855 11.915,11.855 C -2.564,11.855 2.835,6.516 2.835,0" /></g><g
           transform="translate(117.0903,89.9512)"
           id="g48"><path
             id="path50"
             style="fill:#393536;fill-opacity:1;fill-rule:nonzero;stroke:none"
             d="M 0,0 17.074,-17.89 V -1.086 H 19.91 V -24.768 L 2.836,-6.878 V -23.832 H 0 Z" /></g><path
           id="path52"
           style="fill:#393536;fill-opacity:1;fill-rule:nonzero;stroke:none"
           d="m 153.98,74.656 h -6.606 v 2.263 h 6.606 z" /><g
           transform="translate(170.7471,66.1191)"
           id="g54"><path
             id="path56"
             style="fill:#393536;fill-opacity:1;fill-rule:nonzero;stroke:none"
             d="m 0,0 h -2.836 v 20.151 h -5.399 v 2.595 H 5.4 V 20.151 H 0 Z" /></g><g
           transform="translate(193.313,79.6943)"
           id="g58"><path
             id="path60"
             style="fill:#393536;fill-opacity:1;fill-rule:nonzero;stroke:none"
             d="M 0,0 V 9.171 H 2.835 V -13.575 H 0 v 10.92 h -10.83 v -10.92 h -2.836 V 9.171 h 2.836 V 0 Z" /></g><g
           transform="translate(201.7622,88.8652)"
           id="g62"><path
             id="path64"
             style="fill:#393536;fill-opacity:1;fill-rule:nonzero;stroke:none"
             d="M 0,0 H 12.218 V -2.595 H 2.836 V -8.96 h 9.11 v -2.595 h -9.11 v -8.596 h 9.382 v -2.595 l -12.218,0 z" /></g><path
           id="path66"
           style="fill:#393536;fill-opacity:1;fill-rule:nonzero;stroke:none"
           d="m 230.434,74.656 h -6.606 v 2.263 h 6.606 z" /><g
           transform="translate(243.8818,86.2705)"
           id="g68"><path
             id="path70"
             style="fill:#393536;fill-opacity:1;fill-rule:nonzero;stroke:none"
             d="M 0,0 V -6.396 H 7.904 V -8.989 H 0 V -20.151 H -2.836 V 2.595 H 8.175 L 8.175,0 Z" /></g><g
           transform="translate(259.7212,68.7139)"
           id="g72"><path
             id="path74"
             style="fill:#393536;fill-opacity:1;fill-rule:nonzero;stroke:none"
             d="M 0,0 H 6.908 V -2.595 H -2.836 V 20.151 H 0 Z" /></g><g
           transform="translate(266.4575,88.8652)"
           id="g76"><path
             id="path78"
             style="fill:#393536;fill-opacity:1;fill-rule:nonzero;stroke:none"
             d="M 0,0 H 3.258 L 8.839,-9.714 14.42,0 h 3.258 l -7.421,-12.852 v -9.894 H 7.421 v 9.894 z" /></g><g
           transform="translate(314.3955,84.5205)"
           id="g80"><path
             id="path82"
             style="fill:#393536;fill-opacity:1;fill-rule:nonzero;stroke:none"
             d="m 0,0 c -1.629,1.448 -3.861,2.232 -6.003,2.232 -5.099,0 -8.99,-4.253 -8.99,-9.291 0,-4.977 3.861,-9.231 8.93,-9.231 2.232,0 4.374,0.845 6.063,2.353 v -3.348 c -1.75,-1.026 -3.981,-1.599 -5.973,-1.599 -6.486,0 -11.855,5.158 -11.855,11.735 0,6.727 5.399,11.976 12.097,11.976 1.991,0 4.011,-0.482 5.731,-1.539 z" /></g><g
           transform="translate(338.6826,77.4922)"
           id="g84"><path
             id="path86"
             style="fill:#393536;fill-opacity:1;fill-rule:nonzero;stroke:none"
             d="m 0,0 c 0,5.008 -3.741,9.2 -9.08,9.2 -5.34,0 -9.08,-4.192 -9.08,-9.2 0,-5.188 4.163,-9.201 9.08,-9.201 C -4.163,-9.201 0,-5.188 0,0 m 2.836,0 c 0,-6.758 -5.34,-11.855 -11.916,-11.855 -6.576,0 -11.916,5.097 -11.916,11.855 0,6.516 5.399,11.855 11.916,11.855 C -2.564,11.855 2.836,6.516 2.836,0" /></g><g
           transform="translate(349.6357,81.1426)"
           id="g88"><path
             id="path90"
             style="fill:#393536;fill-opacity:1;fill-rule:nonzero;stroke:none"
             d="M 0,0 H -0.061 L -2.715,-15.023 H -5.641 L -0.995,8.688 6.817,-9.231 14.631,8.688 19.276,-15.023 H 16.351 L 13.695,0 H 13.636 L 6.817,-15.506 Z" /></g><g
           transform="translate(375.7939,78.1855)"
           id="g92"><path
             id="path94"
             style="fill:#393536;fill-opacity:1;fill-rule:nonzero;stroke:none"
             d="m 0,0 h 0.905 c 2.896,0 6.033,0.543 6.033,4.163 0,3.56 -3.378,3.983 -6.184,3.983 H 0 Z M 0,-12.066 H -2.836 V 10.68 h 3.258 c 6.999,0 9.171,-2.414 9.171,-6.577 0,-4.796 -3.651,-6.637 -7.964,-6.637 H 0 Z" /></g><g
           transform="translate(391.8438,88.8652)"
           id="g96"><path
             id="path98"
             style="fill:#393536;fill-opacity:1;fill-rule:nonzero;stroke:none"
             d="m 0,0 v -13.425 c 0,-3.71 1.116,-7.149 5.49,-7.149 4.375,0 5.49,3.439 5.49,7.149 V 0 h 2.836 v -14.39 c 0,-5.007 -3.107,-8.839 -8.326,-8.839 -5.219,0 -8.325,3.832 -8.325,8.839 l 0,14.39 z" /></g><g
           transform="translate(417.2168,66.1191)"
           id="g100"><path
             id="path102"
             style="fill:#393536;fill-opacity:1;fill-rule:nonzero;stroke:none"
             d="m 0,0 h -2.836 v 20.151 h -5.399 v 2.595 H 5.399 V 20.151 H 0 Z" /></g><path
           id="path104"
           style="fill:#393536;fill-opacity:1;fill-rule:nonzero;stroke:none"
           d="m 429.104,66.119 h -2.836 v 22.746 h 2.836 z" /><g
           transform="translate(434.5957,89.9512)"
           id="g106"><path
             id="path108"
             style="fill:#393536;fill-opacity:1;fill-rule:nonzero;stroke:none"
             d="M 0,0 17.074,-17.89 V -1.086 H 19.91 V -24.768 L 2.836,-6.878 V -23.832 H 0 Z" /></g><g
           transform="translate(480.7832,77.582)"
           id="g110"><path
             id="path112"
             style="fill:#393536;fill-opacity:1;fill-rule:nonzero;stroke:none"
             d="m 0,0 v -0.904 c 0,-6.245 -4.404,-11.041 -10.77,-11.041 -6.365,0 -11.493,5.49 -11.493,11.795 0,6.546 5.249,11.916 11.795,11.916 3.53,0 7.029,-1.599 9.261,-4.405 l -1.99,-1.9 c -1.63,2.232 -4.375,3.71 -7.151,3.71 -5.097,0 -9.08,-4.133 -9.08,-9.231 0,-4.766 3.922,-9.292 8.839,-9.292 3.53,0 7.331,3.047 7.451,6.758 H -9.02 l 0,2.594 z" /></g><path
           id="path114"
           style="fill:#064c65;fill-opacity:1;fill-rule:nonzero;stroke:none"
           d="m 90.791,105.634 h 28.545 v 28.545 H 90.791 Z" /><g
           id="g116"><g
             id="g118" /><g
             id="g128"><g
               style="opacity:0.69999701"
               id="g126"
               clip-path="url(#clipPath122)"><path
                 id="path124"
                 style="fill:#064c65;fill-opacity:1;fill-rule:nonzero;stroke:none"
                 d="m 130.754,105.634 h 28.544 v 28.545 h -28.544 z" /></g></g></g><g
           id="g130"><g
             id="g132" /><g
             id="g142"><g
               style="opacity:0.55000299"
               id="g140"
               clip-path="url(#clipPath136)"><path
                 id="path138"
                 style="fill:#064c65;fill-opacity:1;fill-rule:nonzero;stroke:none"
                 d="m 170.716,105.634 h 28.544 v 28.545 h -28.544 z" /></g></g></g><g
           id="g144"><g
             id="g146" /><g
             id="g156"><g
               style="opacity:0.44999701"
               id="g154"
               clip-path="url(#clipPath150)"><path
                 id="path152"
                 style="fill:#064c65;fill-opacity:1;fill-rule:nonzero;stroke:none"
                 d="m 210.676,105.634 h 28.544 v 28.545 h -28.544 z" /></g></g></g><g
           id="g158"><g
             id="g160" /><g
             id="g170"><g
               style="opacity:0.35000604"
               id="g168"
               clip-path="url(#clipPath164)"><path
                 id="path166"
                 style="fill:#064c65;fill-opacity:1;fill-rule:nonzero;stroke:none"
                 d="m 250.638,105.634 h 28.544 v 28.545 h -28.544 z" /></g></g></g><g
           id="g172"><g
             id="g174" /><g
             id="g184"><g
               style="opacity:0.25"
               id="g182"
               clip-path="url(#clipPath178)"><path
                 id="path180"
                 style="fill:#064c65;fill-opacity:1;fill-rule:nonzero;stroke:none"
                 d="m 290.6,105.634 h 28.543 v 28.545 H 290.6 Z" /></g></g></g><g
           id="g186"><g
             id="g188" /><g
             id="g198"><g
               style="opacity:0.19999701"
               id="g196"
               clip-path="url(#clipPath192)"><path
                 id="path194"
                 style="fill:#064c65;fill-opacity:1;fill-rule:nonzero;stroke:none"
                 d="m 330.561,105.634 h 28.545 v 28.545 h -28.545 z" /></g></g></g><g
           id="g200"><g
             id="g202" /><g
             id="g212"><g
               style="opacity:0.16999799"
               id="g210"
               clip-path="url(#clipPath206)"><path
                 id="path208"
                 style="fill:#064c65;fill-opacity:1;fill-rule:nonzero;stroke:none"
                 d="m 370.523,105.634 h 28.545 v 28.545 h -28.545 z" /></g></g></g><g
           id="g214"><g
             id="g216" /><g
             id="g226"><g
               style="opacity:0.13999903"
               id="g224"
               clip-path="url(#clipPath220)"><path
                 id="path222"
                 style="fill:#064c65;fill-opacity:1;fill-rule:nonzero;stroke:none"
                 d="m 410.486,105.634 h 28.543 v 28.545 h -28.543 z" /></g></g></g><g
           id="g228"><g
             id="g230" /><g
             id="g240"><g
               style="opacity:0.11000103"
               id="g238"
               clip-path="url(#clipPath234)"><path
                 id="path236"
                 style="fill:#064c65;fill-opacity:1;fill-rule:nonzero;stroke:none"
                 d="m 450.445,105.634 h 28.545 v 28.545 h -28.545 z" /></g></g></g></g></g></g></svg>