<svg xmlns="http://www.w3.org/2000/svg" width="389.3" height="292.038" viewBox="0 0 389.3 292.038">
  <g id="Group_1" data-name="Group 1" transform="translate(-205.35 -77.117)">
    <path id="Path_1" data-name="Path 1" d="M450.535,228.736h.005C450.572,228.73,450.592,228.727,450.535,228.736Z" fill="#fff"/>
    <path id="Path_2" data-name="Path 2" d="M516.29,134.253a.548.548,0,1,0-.548.548A.548.548,0,0,0,516.29,134.253Z" fill="#fff"/>
    <circle id="Ellipse_1" data-name="Ellipse 1" cx="1.008" cy="1.008" r="1.008" transform="translate(505.499 139.845)" fill="#fff"/>
    <path id="Path_3" data-name="Path 3" d="M496.684,142.493a1.415,1.415,0,1,0-1.415,1.415A1.414,1.414,0,0,0,496.684,142.493Z" fill="#fff"/>
    <path id="Path_4" data-name="Path 4" d="M486.289,138.879a1.79,1.79,0,1,0-1.79,1.789A1.79,1.79,0,0,0,486.289,138.879Z" fill="#fff"/>
    <path id="Path_5" data-name="Path 5" d="M474.045,131.14a2.106,2.106,0,1,0,2.255-2.091c-.05,0-.1-.015-.149-.015A2.106,2.106,0,0,0,474.045,131.14Z" fill="#fff"/>
    <path id="Path_6" data-name="Path 6" d="M471.312,118.429a2.4,2.4,0,0,0-2.4,2.4c0,.037.009.072.011.109a2.395,2.395,0,1,0,2.388-2.509Z" fill="#fff"/>
    <path id="Path_7" data-name="Path 7" d="M470.772,112.118a2.62,2.62,0,0,0,.437-.044,2.621,2.621,0,1,0-.437.044Z" fill="#fff"/>
    <path id="Path_8" data-name="Path 8" d="M474.563,101.6a2.875,2.875,0,1,0-2.875-2.876A2.876,2.876,0,0,0,474.563,101.6Z" fill="#fff"/>
    <circle id="Ellipse_2" data-name="Ellipse 2" cx="3.087" cy="3.087" r="3.087" transform="translate(479.008 87.079)" fill="#fff"/>
    <path id="Path_9" data-name="Path 9" d="M492.032,87.813a3.258,3.258,0,1,0-3.257-3.258A3.258,3.258,0,0,0,492.032,87.813Z" fill="#fff"/>
    <path id="Path_10" data-name="Path 10" d="M503.2,85.569a3.385,3.385,0,1,0-3.385-3.385A3.386,3.386,0,0,0,503.2,85.569Z" fill="#fff"/>
    <path id="Path_11" data-name="Path 11" d="M514.559,86.774a3.513,3.513,0,1,0-3.513-3.513A3.513,3.513,0,0,0,514.559,86.774Z" fill="#fff"/>
    <path id="Path_12" data-name="Path 12" d="M525.147,91.187a3.631,3.631,0,1,0-3.632-3.632A3.632,3.632,0,0,0,525.147,91.187Z" fill="#fff"/>
    <path id="Path_13" data-name="Path 13" d="M534.224,98.189a3.7,3.7,0,1,0-3.7-3.7A3.7,3.7,0,0,0,534.224,98.189Z" fill="#fff"/>
    <path id="Path_14" data-name="Path 14" d="M541.273,107.242a3.748,3.748,0,1,0-3.749-3.749A3.75,3.75,0,0,0,541.273,107.242Z" fill="#fff"/>
    <circle id="Ellipse_3" data-name="Ellipse 3" cx="3.77" cy="3.77" r="3.77" transform="translate(542.459 110.034)" fill="#fff"/>
    <path id="Path_15" data-name="Path 15" d="M545.555,124.823a3.778,3.778,0,1,0,3.778-3.778A3.778,3.778,0,0,0,545.555,124.823Z" fill="#fff"/>
    <circle id="Ellipse_4" data-name="Ellipse 4" cx="3.756" cy="3.756" r="3.756" transform="translate(547.121 132.413)" fill="#fff"/>
    <path id="Path_16" data-name="Path 16" d="M554.746,147.62a3.719,3.719,0,1,0-3.719,3.719A3.719,3.719,0,0,0,554.746,147.62Z" fill="#fff"/>
    <circle id="Ellipse_5" data-name="Ellipse 5" cx="3.654" cy="3.654" r="3.654" transform="translate(546.245 155.364)" fill="#fff"/>
    <path id="Path_17" data-name="Path 17" d="M551.17,170.241a3.556,3.556,0,1,0-3.556,3.556A3.556,3.556,0,0,0,551.17,170.241Z" fill="#fff"/>
    <path id="Path_18" data-name="Path 18" d="M547.662,181.185a3.427,3.427,0,1,0-3.427,3.427A3.427,3.427,0,0,0,547.662,181.185Z" fill="#fff"/>
    <path id="Path_19" data-name="Path 19" d="M543.117,191.754a3.3,3.3,0,1,0-3.3,3.3A3.3,3.3,0,0,0,543.117,191.754Z" fill="#fff"/>
    <path id="Path_20" data-name="Path 20" d="M534.415,198.7a3.154,3.154,0,1,0,3.154,3.154A3.154,3.154,0,0,0,534.415,198.7Z" fill="#fff"/>
    <path id="Path_21" data-name="Path 21" d="M525.138,211.4a2.941,2.941,0,1,0,2.941-2.941A2.942,2.942,0,0,0,525.138,211.4Z" fill="#fff"/>
    <path id="Path_22" data-name="Path 22" d="M518.149,220.3a2.729,2.729,0,1,0,2.728-2.729A2.728,2.728,0,0,0,518.149,220.3Z" fill="#fff"/>
    <path id="Path_23" data-name="Path 23" d="M512.867,226a2.487,2.487,0,1,0,2.487,2.487A2.487,2.487,0,0,0,512.867,226Z" fill="#fff"/>
    <path id="Path_24" data-name="Path 24" d="M501.912,235.866a2.192,2.192,0,1,0,2.191-2.192A2.191,2.191,0,0,0,501.912,235.866Z" fill="#fff"/>
    <path id="Path_25" data-name="Path 25" d="M494.7,240.5a1.913,1.913,0,1,0,1.913,1.913A1.913,1.913,0,0,0,494.7,240.5Z" fill="#fff"/>
    <circle id="Ellipse_6" data-name="Ellipse 6" cx="1.571" cy="1.571" r="1.571" transform="translate(483.27 246.67)" fill="#fff"/>
    <circle id="Ellipse_7" data-name="Ellipse 7" cx="1.222" cy="1.222" r="1.222" transform="translate(473.331 252.058)" fill="#fff"/>
    <circle id="Ellipse_8" data-name="Ellipse 8" cx="0.922" cy="0.922" r="0.922" transform="translate(579.61 175.344)" fill="#fff"/>
    <path id="Path_26" data-name="Path 26" d="M569.022,181.806a1.648,1.648,0,1,0,1.648-1.647A1.647,1.647,0,0,0,569.022,181.806Z" fill="#fff"/>
    <path id="Path_27" data-name="Path 27" d="M566.5,191.217a2.255,2.255,0,1,0-2.255,2.256A2.255,2.255,0,0,0,566.5,191.217Z" fill="#fff"/>
    <path id="Path_28" data-name="Path 28" d="M563.5,202.116a2.728,2.728,0,1,0-2.728,2.728A2.729,2.729,0,0,0,563.5,202.116Z" fill="#fff"/>
    <path id="Path_29" data-name="Path 29" d="M561.9,213.4a3.107,3.107,0,1,0-3.107,3.107A3.107,3.107,0,0,0,561.9,213.4Z" fill="#fff"/>
    <path id="Path_30" data-name="Path 30" d="M560.478,224.726a3.4,3.4,0,1,0-3.4,3.4A3.4,3.4,0,0,0,560.478,224.726Z" fill="#fff"/>
    <path id="Path_31" data-name="Path 31" d="M558.3,235.931a3.6,3.6,0,1,0-3.6,3.6A3.6,3.6,0,0,0,558.3,235.931Z" fill="#fff"/>
    <circle id="Ellipse_9" data-name="Ellipse 9" cx="3.728" cy="3.728" r="3.728" transform="translate(547.115 242.975)" fill="#fff"/>
    <path id="Path_32" data-name="Path 32" d="M544.942,252.729a3.776,3.776,0,1,0,3.776,3.776A3.775,3.775,0,0,0,544.942,252.729Z" fill="#fff"/>
    <path id="Path_33" data-name="Path 33" d="M533.36,264.844a3.754,3.754,0,1,0,3.754-3.754A3.754,3.754,0,0,0,533.36,264.844Z" fill="#fff"/>
    <path id="Path_34" data-name="Path 34" d="M527.819,267.858a3.66,3.66,0,1,0,3.66,3.659A3.659,3.659,0,0,0,527.819,267.858Z" fill="#fff"/>
    <path id="Path_35" data-name="Path 35" d="M514.026,276.505a3.488,3.488,0,1,0,3.489-3.488A3.489,3.489,0,0,0,514.026,276.505Z" fill="#fff"/>
    <path id="Path_36" data-name="Path 36" d="M503.348,279.92a3.237,3.237,0,1,0,3.237-3.237A3.236,3.236,0,0,0,503.348,279.92Z" fill="#fff"/>
    <path id="Path_37" data-name="Path 37" d="M492.409,281.908a2.9,2.9,0,1,0,2.9-2.9A2.9,2.9,0,0,0,492.409,281.908Z" fill="#fff"/>
    <path id="Path_38" data-name="Path 38" d="M481.422,282.6a2.451,2.451,0,1,0,2.451-2.451A2.451,2.451,0,0,0,481.422,282.6Z" fill="#fff"/>
    <path id="Path_39" data-name="Path 39" d="M470.521,282.062a1.908,1.908,0,1,0,1.908-1.907A1.908,1.908,0,0,0,470.521,282.062Z" fill="#fff"/>
    <path id="Path_40" data-name="Path 40" d="M459.874,280.33A1.228,1.228,0,1,0,461.1,279.1,1.228,1.228,0,0,0,459.874,280.33Z" fill="#fff"/>
    <path id="Path_41" data-name="Path 41" d="M449.661,277.357a.377.377,0,1,0,.378-.378A.377.377,0,0,0,449.661,277.357Z" fill="#fff"/>
    <path id="Path_42" data-name="Path 42" d="M534.834,317.37a1.436,1.436,0,1,0,1.436-1.436A1.436,1.436,0,0,0,534.834,317.37Z" fill="#fff"/>
    <circle id="Ellipse_10" data-name="Ellipse 10" cx="2.425" cy="2.425" r="2.425" transform="translate(543.745 311.532)" fill="#fff"/>
    <path id="Path_43" data-name="Path 43" d="M545.253,300.575a3.11,3.11,0,1,0,3.111,3.11A3.11,3.11,0,0,0,545.253,300.575Z" fill="#fff"/>
    <path id="Path_44" data-name="Path 44" d="M538.868,299.264a3.54,3.54,0,1,0-3.541,3.54A3.541,3.541,0,0,0,538.868,299.264Z" fill="#fff"/>
    <path id="Path_45" data-name="Path 45" d="M528.083,300.8a3.751,3.751,0,1,0-3.751,3.751A3.751,3.751,0,0,0,528.083,300.8Z" fill="#fff"/>
    <path id="Path_46" data-name="Path 46" d="M513.767,300.615a3.753,3.753,0,1,0,3.753,3.753A3.753,3.753,0,0,0,513.767,300.615Z" fill="#fff"/>
    <path id="Path_47" data-name="Path 47" d="M507.066,308.767a3.549,3.549,0,1,0-3.549,3.549A3.549,3.549,0,0,0,507.066,308.767Z" fill="#fff"/>
    <path id="Path_48" data-name="Path 48" d="M493.117,315.913a3.122,3.122,0,1,0-3.122-3.122A3.122,3.122,0,0,0,493.117,315.913Z" fill="#fff"/>
    <path id="Path_49" data-name="Path 49" d="M484.691,315.29a2.436,2.436,0,1,0-2.436,2.435A2.436,2.436,0,0,0,484.691,315.29Z" fill="#fff"/>
    <path id="Path_50" data-name="Path 50" d="M469.69,316.061a1.445,1.445,0,1,0,1.444-1.445A1.445,1.445,0,0,0,469.69,316.061Z" fill="#fff"/>
    <path id="Path_51" data-name="Path 51" d="M440.414,357.093a1.684,1.684,0,1,0-1.685,1.685A1.684,1.684,0,0,0,440.414,357.093Z" fill="#fff"/>
    <path id="Path_52" data-name="Path 52" d="M443.718,350.543a2.809,2.809,0,1,0,2.809-2.809A2.809,2.809,0,0,0,443.718,350.543Z" fill="#fff"/>
    <path id="Path_53" data-name="Path 53" d="M454.187,344.766a3.548,3.548,0,1,0,3.548-3.548A3.547,3.547,0,0,0,454.187,344.766Z" fill="#fff"/>
    <circle id="Ellipse_11" data-name="Ellipse 11" cx="3.97" cy="3.97" r="3.97" transform="translate(458.954 331.795)" fill="#fff"/>
    <path id="Path_54" data-name="Path 54" d="M450.3,327.748a4.113,4.113,0,1,0,4.113,4.113A4.113,4.113,0,0,0,450.3,327.748Z" fill="#fff"/>
    <path id="Path_55" data-name="Path 55" d="M441.67,328.842a3.99,3.99,0,1,0-3.989,3.989A3.989,3.989,0,0,0,441.67,328.842Z" fill="#fff"/>
    <path id="Path_56" data-name="Path 56" d="M425.726,327.4a3.587,3.587,0,1,0-3.587-3.588A3.588,3.588,0,0,0,425.726,327.4Z" fill="#fff"/>
    <path id="Path_57" data-name="Path 57" d="M417.7,316.759a2.865,2.865,0,1,0-2.865,2.865A2.865,2.865,0,0,0,417.7,316.759Z" fill="#fff"/>
    <path id="Path_58" data-name="Path 58" d="M407.06,307.944a1.732,1.732,0,1,0-1.731,1.732A1.731,1.731,0,0,0,407.06,307.944Z" fill="#fff"/>
    <path id="Path_59" data-name="Path 59" d="M435.572,364.756a1.189,1.189,0,1,0,1.188-1.188A1.188,1.188,0,0,0,435.572,364.756Z" fill="#fff"/>
    <path id="Path_60" data-name="Path 60" d="M284.258,133.705a.548.548,0,1,0,.548.548A.548.548,0,0,0,284.258,133.705Z" fill="#fff"/>
    <circle id="Ellipse_12" data-name="Ellipse 12" cx="1.007" cy="1.007" r="1.007" transform="translate(292.486 139.845)" fill="#fff"/>
    <path id="Path_61" data-name="Path 61" d="M303.316,142.493a1.415,1.415,0,1,0,1.415-1.415A1.415,1.415,0,0,0,303.316,142.493Z" fill="#fff"/>
    <path id="Path_62" data-name="Path 62" d="M315.5,137.09a1.789,1.789,0,1,0,1.789,1.789A1.79,1.79,0,0,0,315.5,137.09Z" fill="#fff"/>
    <path id="Path_63" data-name="Path 63" d="M324.317,129.091a2.06,2.06,0,0,0-.468-.057,2.1,2.1,0,0,0-.165,4.2c.055,0,.108.016.165.016a2.1,2.1,0,0,0,.468-4.154Z" fill="#fff"/>
    <path id="Path_64" data-name="Path 64" d="M326.631,119.611a2.379,2.379,0,0,0-.326,1.051c0,.056-.016.109-.016.167a2.424,2.424,0,1,0,.342-1.218Z" fill="#fff"/>
    <path id="Path_65" data-name="Path 65" d="M326.565,109.455a2.663,2.663,0,0,0,2.663,2.663c.06,0,.115-.013.173-.017a2.658,2.658,0,1,0-2.836-2.646Z" fill="#fff"/>
    <path id="Path_66" data-name="Path 66" d="M325.437,101.6a2.875,2.875,0,1,0-2.875-2.876A2.876,2.876,0,0,0,325.437,101.6Z" fill="#fff"/>
    <circle id="Ellipse_13" data-name="Ellipse 13" cx="3.087" cy="3.087" r="3.087" transform="matrix(0.38, -0.925, 0.925, 0.38, 313.877, 91.85)" fill="#fff"/>
    <path id="Path_67" data-name="Path 67" d="M307.968,87.813a3.258,3.258,0,1,0-3.257-3.258A3.258,3.258,0,0,0,307.968,87.813Z" fill="#fff"/>
    <path id="Path_68" data-name="Path 68" d="M296.8,85.569a3.385,3.385,0,1,0-3.386-3.385A3.386,3.386,0,0,0,296.8,85.569Z" fill="#fff"/>
    <path id="Path_69" data-name="Path 69" d="M285.441,86.774a3.513,3.513,0,1,0-3.513-3.513A3.513,3.513,0,0,0,285.441,86.774Z" fill="#fff"/>
    <path id="Path_70" data-name="Path 70" d="M274.853,91.187a3.631,3.631,0,1,0-3.631-3.632A3.632,3.632,0,0,0,274.853,91.187Z" fill="#fff"/>
    <path id="Path_71" data-name="Path 71" d="M265.776,98.189a3.7,3.7,0,1,0-3.7-3.7A3.7,3.7,0,0,0,265.776,98.189Z" fill="#fff"/>
    <circle id="Ellipse_14" data-name="Ellipse 14" cx="3.748" cy="3.748" r="3.748" transform="translate(253.834 101.454) rotate(-22.375)" fill="#fff"/>
    <circle id="Ellipse_15" data-name="Ellipse 15" cx="3.77" cy="3.77" r="3.77" transform="translate(250.001 110.034)" fill="#fff"/>
    <path id="Path_72" data-name="Path 72" d="M250.667,128.6a3.778,3.778,0,1,0-3.778-3.778A3.779,3.779,0,0,0,250.667,128.6Z" fill="#fff"/>
    <circle id="Ellipse_16" data-name="Ellipse 16" cx="3.756" cy="3.756" r="3.756" transform="translate(245.367 132.413)" fill="#fff"/>
    <path id="Path_73" data-name="Path 73" d="M248.973,151.339a3.719,3.719,0,1,0-3.719-3.719A3.719,3.719,0,0,0,248.973,151.339Z" fill="#fff"/>
    <path id="Path_74" data-name="Path 74" d="M253.755,159.018a3.654,3.654,0,1,0-3.654,3.654A3.654,3.654,0,0,0,253.755,159.018Z" fill="#fff"/>
    <path id="Path_75" data-name="Path 75" d="M252.386,166.685a3.556,3.556,0,1,0,3.557,3.556A3.556,3.556,0,0,0,252.386,166.685Z" fill="#fff"/>
    <path id="Path_76" data-name="Path 76" d="M255.765,177.757a3.427,3.427,0,1,0,3.428,3.428A3.427,3.427,0,0,0,255.765,177.757Z" fill="#fff"/>
    <circle id="Ellipse_17" data-name="Ellipse 17" cx="3.299" cy="3.299" r="3.299" transform="translate(256.883 188.455)" fill="#fff"/>
    <path id="Path_77" data-name="Path 77" d="M265.585,205.008a3.154,3.154,0,1,0-3.154-3.155A3.154,3.154,0,0,0,265.585,205.008Z" fill="#fff"/>
    <path id="Path_78" data-name="Path 78" d="M274.862,211.4a2.941,2.941,0,1,0-2.941,2.942A2.941,2.941,0,0,0,274.862,211.4Z" fill="#fff"/>
    <path id="Path_79" data-name="Path 79" d="M279.123,223.031a2.729,2.729,0,1,0-2.729-2.728A2.728,2.728,0,0,0,279.123,223.031Z" fill="#fff"/>
    <path id="Path_80" data-name="Path 80" d="M289.621,228.49a2.488,2.488,0,1,0-2.488,2.487A2.487,2.487,0,0,0,289.621,228.49Z" fill="#fff"/>
    <path id="Path_81" data-name="Path 81" d="M298.088,235.866a2.192,2.192,0,1,0-2.192,2.191A2.192,2.192,0,0,0,298.088,235.866Z" fill="#fff"/>
    <circle id="Ellipse_18" data-name="Ellipse 18" cx="1.914" cy="1.914" r="1.914" transform="translate(303.382 240.501)" fill="#fff"/>
    <circle id="Ellipse_19" data-name="Ellipse 19" cx="1.571" cy="1.571" r="1.571" transform="translate(313.588 246.67)" fill="#fff"/>
    <circle id="Ellipse_20" data-name="Ellipse 20" cx="1.222" cy="1.222" r="1.222" transform="translate(324.224 252.058)" fill="#fff"/>
    <path id="Path_82" data-name="Path 82" d="M207.6,170.295a20.4,20.4,0,0,1,6.7-1.336,23.656,23.656,0,0,1,4.824.352,29.513,29.513,0,0,1,5.435,1.6,30.842,30.842,0,0,1,10.951,7.628,39.045,39.045,0,0,1,7.856,13.495,96.028,96.028,0,0,1,4.134,17.476c.273,1.625.5,3.176.809,4.848.284,1.657.608,3.315.939,4.983.691,3.34,1.488,6.729,2.475,10.142a90.6,90.6,0,0,0,3.686,10.229,63.529,63.529,0,0,0,5.431,9.919,50.231,50.231,0,0,0,7.554,8.892l1.083,1,.271.251.136.125c-.174-.126.314.244.286.223l.063.05.5.4,1.995,1.6.5.4.634.435,1.28.864,1.289.858c.432.288.865.574,1.277.793a69.111,69.111,0,0,0,20.788,7.978A107.973,107.973,0,0,0,318.6,275.76c1.586.034,3.141.023,4.682.033l4.512-.117c1.468-.076,2.921-.131,4.334-.224l2.1-.15,1.033-.074.257-.018.366-.037.483-.044a92.99,92.99,0,0,0,15.556-2.752,69.677,69.677,0,0,0,11.876-4.326c-.14.3-.286.6-.432.925a41.509,41.509,0,0,1-4.451,7.169,45.281,45.281,0,0,1-7.961,7.958c-.4.336-.836.639-1.27.951s-.866.643-1.329.931l-1.322.873-1.539.911a45.961,45.961,0,0,1-6.363,3.025,44.662,44.662,0,0,1-7.185,2.1l-.118.025c.036,0-.164.024.066,0l-.071.012-.284.049-.568.1-.943.154c-.519.1-1.223.173-1.845.242a38.748,38.748,0,0,1-3.939.215,48.456,48.456,0,0,1-8.315-.691c-1.443-.244-2.8-.528-4.4-.915l-1.069-.259-1.13-.3-2.285-.633c-6.139-1.753-12.678-4.121-19.693-5.837a74.456,74.456,0,0,0-10.873-1.891,44.865,44.865,0,0,0-11.383.33,34.673,34.673,0,0,0-5.623,1.421c-.682.24-1.825.668-2.648,1.046-.872.384-1.722.81-2.551,1.27a28.378,28.378,0,0,0-8.623,7.23,23.055,23.055,0,0,0-2.9,4.8l-.205.446-.1.274-.2.548c-.07.2-.131.332-.208.579l-.224.73a18.683,18.683,0,0,0-.617,2.769,21.048,21.048,0,0,0,1.105,10.326,19.985,19.985,0,0,0,5.407,7.994l.107.1.119.109.051.04.2.159.4.318.4.315.495.346c.331.222.662.467.988.658l.97.554a20.093,20.093,0,0,0,4,1.616,19.424,19.424,0,0,0,7.921.576,17.777,17.777,0,0,0,6.709-2.355c.436-.3.843-.533,1.284-.883a13.566,13.566,0,0,0,1.234-1.026,11.411,11.411,0,0,0,1.061-1.073,11.084,11.084,0,0,0,.916-1.12,14.452,14.452,0,0,0,2.295-4.581,12.576,12.576,0,0,0,.078-6.984c-.122-.382-.231-.72-.324-1.011-.112-.284-.224-.517-.3-.706l-.252-.571.188.6c.059.2.143.437.222.727q.09.442.207,1.024a11.957,11.957,0,0,1-.787,6.586,13.805,13.805,0,0,1-6.939,7.116,15.356,15.356,0,0,1-5.842,1.334,16.219,16.219,0,0,1-9.519-2.841l-.71-.519c-.235-.173-.42-.358-.634-.533a14.671,14.671,0,0,1-1.312-1.275,15.152,15.152,0,0,1-3.312-13.767,12,12,0,0,1,.579-1.684l.151-.37c.046-.121.163-.332.242-.494l.263-.522.132-.262c.025-.053-.1.216-.031.079l.032-.051.064-.1a15.8,15.8,0,0,1,2.351-3.043,20.311,20.311,0,0,1,6.7-4.412c.637-.266,1.29-.506,1.955-.712.708-.223,1.129-.33,2.038-.548a25.37,25.37,0,0,1,4.141-.555c5.673-.312,11.707,1.18,17.658,3.356,5.995,2.179,11.976,5.115,18.441,7.779l2.446.98,1.239.476,1.306.475c1.571.571,3.383,1.174,5.129,1.671a64.622,64.622,0,0,0,10.829,2.131c1.834.2,3.677.308,5.515.323.939,0,1.789.007,2.81-.046l1.36-.07.576-.035.287-.017.072-.005.209-.023.166-.015a62.674,62.674,0,0,0,10.311-1.784A64.768,64.768,0,0,0,354,305.144l2.1-.941,2.172-1.088c.7-.342,1.368-.731,2.037-1.1s1.331-.743,1.963-1.149a66.3,66.3,0,0,0,12.9-10.265q.672-.688,1.3-1.376c-.318.559-.644,1.122-.969,1.7-.921,1.373-1.84,2.841-2.962,4.22a48.035,48.035,0,0,1-7.892,8.007l-2.386,1.782-2.545,1.645-2.695,1.481-.17.094-.043.024c-.162.064.175-.061.121-.039l-.1.046-.412.187-.824.375c-.594.277-1.008.442-1.458.633l-.676.288c-.229.1-.514.2-.769.294-.532.2-1.037.4-1.594.592l-1.656.58-1.72.58c-2.325.78-4.767,1.588-7.264,2.541a49.907,49.907,0,0,0-7.55,3.565,29.469,29.469,0,0,0-6.9,5.463,20.836,20.836,0,0,0-1.429,1.7l-.742.942-.505.763-.643,1.022-.539.967c-.339.657-.653,1.326-.936,2.01a18.1,18.1,0,0,0-1.359,8.889,14.476,14.476,0,0,0,1.251,4.435,16.832,16.832,0,0,0,1.088,1.924,15.322,15.322,0,0,0,1.338,1.7,19.231,19.231,0,0,0,6.3,4.385,37.743,37.743,0,0,0,6.247,2.114c2.005.518,3.891.914,5.671,1.329a38.051,38.051,0,0,1,9.23,3.1,18.187,18.187,0,0,1,5.8,4.573,12.184,12.184,0,0,1,2.242,4.3l.191.734.094.543.078.447-.009-.453c0-.15-.007-.337-.012-.558l-.079-.767a12.794,12.794,0,0,0-1.653-4.827,19.739,19.739,0,0,0-5.517-5.891,40.974,40.974,0,0,0-9.243-4.771c-1.738-.7-3.542-1.375-5.3-2.131a32.583,32.583,0,0,1-5.1-2.634,13.122,13.122,0,0,1-3.849-3.62,8.412,8.412,0,0,1-.571-1.044,10.732,10.732,0,0,1-.4-1.108,7.328,7.328,0,0,1-.223-2.227,10.2,10.2,0,0,1,1.586-4.688c.238-.383.495-.758.766-1.127l.428-.542.395-.445.6-.661c.071-.087-.054.071-.03.045l.034-.029.067-.059.133-.118.264-.237a11.919,11.919,0,0,1,1.068-.925c2.956-2.335,6.833-3.663,11.23-4.623,2.211-.475,4.539-.872,6.964-1.292l1.838-.321,1.885-.353c.623-.113,1.282-.264,1.921-.394.328-.072.63-.128.979-.213l1.057-.263c.7-.177,1.445-.365,1.976-.521l.872-.246.435-.123.108-.03.285-.1.242-.086,3.859-1.4,3.714-1.651c1.2-.6,2.373-1.247,3.55-1.873A65.45,65.45,0,0,0,386,307.711c1.824-1.659,3.419-3.449,4.986-5.178,1.457-1.811,2.91-3.551,4.109-5.367,1.29-1.759,2.314-3.586,3.35-5.3.5-.867.919-1.747,1.361-2.59.064-.127.128-.25.192-.376.065.126.128.249.192.376.441.843.863,1.723,1.361,2.59,1.036,1.712,2.06,3.539,3.35,5.3,1.2,1.816,2.652,3.556,4.109,5.367,1.567,1.729,3.162,3.519,4.986,5.178a65.45,65.45,0,0,0,12.347,9.134c1.177.626,2.349,1.27,3.55,1.873l3.714,1.651,3.859,1.4.242.086.285.1.108.03.435.123.872.246c.531.156,1.273.344,1.976.521l1.057.263c.349.085.65.141.979.213.639.13,1.3.281,1.921.394l1.885.353,1.838.321c2.425.42,4.753.817,6.964,1.292,4.4.96,8.274,2.288,11.23,4.623a11.919,11.919,0,0,1,1.068.925l.264.237.133.118.067.059.034.029c.024.026-.1-.132-.03-.045l.6.661.394.445.429.542c.271.369.528.744.766,1.127a10.2,10.2,0,0,1,1.586,4.688,7.328,7.328,0,0,1-.223,2.227,10.732,10.732,0,0,1-.4,1.108,8.546,8.546,0,0,1-.571,1.044,13.134,13.134,0,0,1-3.849,3.62,32.627,32.627,0,0,1-5.1,2.634c-1.763.756-3.567,1.435-5.3,2.131a40.974,40.974,0,0,0-9.243,4.771,19.739,19.739,0,0,0-5.517,5.891,12.794,12.794,0,0,0-1.653,4.827c-.03.29-.057.546-.079.767-.005.221-.009.408-.012.558l-.009.453.078-.447c.025-.146.057-.327.094-.543l.191-.734a12.184,12.184,0,0,1,2.242-4.3,18.193,18.193,0,0,1,5.8-4.573,38.075,38.075,0,0,1,9.231-3.1c1.78-.415,3.666-.811,5.671-1.329a37.743,37.743,0,0,0,6.247-2.114,19.231,19.231,0,0,0,6.3-4.385,15.322,15.322,0,0,0,1.338-1.7,16.832,16.832,0,0,0,1.088-1.924,14.476,14.476,0,0,0,1.251-4.435,18.1,18.1,0,0,0-1.359-8.889c-.283-.684-.6-1.353-.936-2.01l-.539-.967-.643-1.022-.505-.763-.742-.942a20.836,20.836,0,0,0-1.429-1.7,29.469,29.469,0,0,0-6.9-5.463,49.907,49.907,0,0,0-7.55-3.565c-2.5-.953-4.939-1.761-7.264-2.541l-1.72-.58-1.656-.58c-.557-.191-1.063-.4-1.594-.592-.255-.1-.54-.2-.769-.294l-.676-.288c-.45-.191-.864-.356-1.458-.633l-.825-.375-.411-.187-.1-.046c-.054-.022.283.1.12.039l-.042-.024-.17-.094-2.695-1.481-2.545-1.645-2.386-1.782a48.035,48.035,0,0,1-7.892-8.007c-1.122-1.379-2.041-2.847-2.962-4.22-.325-.583-.651-1.146-.969-1.7q.63.687,1.3,1.376a66.3,66.3,0,0,0,12.9,10.265c.632.406,1.3.774,1.963,1.149s1.335.762,2.037,1.1L443.9,304.2l2.1.941a64.768,64.768,0,0,0,9.414,3.232,62.674,62.674,0,0,0,10.311,1.784l.167.015.208.023.072.005.287.017.576.035,1.36.07c1.021.053,1.871.05,2.81.046,1.838-.015,3.681-.125,5.515-.323a64.622,64.622,0,0,0,10.829-2.131c1.746-.5,3.558-1.1,5.129-1.671l1.306-.475,1.239-.476,2.446-.98c6.465-2.664,12.446-5.6,18.441-7.779,5.951-2.176,11.985-3.668,17.658-3.356a25.372,25.372,0,0,1,4.141.555c.909.218,1.33.325,2.038.548.665.206,1.318.446,1.955.712a20.311,20.311,0,0,1,6.7,4.412,15.8,15.8,0,0,1,2.351,3.043l.064.1.032.051c.066.137-.056-.132-.031-.079l.132.262.263.522c.079.162.2.373.242.494l.151.37a11.887,11.887,0,0,1,.578,1.684,15.148,15.148,0,0,1-3.311,13.767,14.663,14.663,0,0,1-1.312,1.275c-.214.175-.4.36-.634.533l-.71.519a16.219,16.219,0,0,1-9.519,2.841,15.356,15.356,0,0,1-5.842-1.334,13.8,13.8,0,0,1-6.939-7.116,11.968,11.968,0,0,1-.788-6.586q.118-.58.208-1.024c.079-.29.163-.53.222-.727.124-.392.187-.6.187-.6l-.251.571c-.081.189-.192.422-.3.706-.093.291-.2.629-.324,1.011a12.576,12.576,0,0,0,.078,6.984,14.452,14.452,0,0,0,2.295,4.581,11.075,11.075,0,0,0,.916,1.12,11.418,11.418,0,0,0,1.061,1.073,13.571,13.571,0,0,0,1.234,1.026c.441.35.847.58,1.284.883a17.777,17.777,0,0,0,6.709,2.355,19.424,19.424,0,0,0,7.921-.576,20.092,20.092,0,0,0,4.005-1.616l.97-.554c.326-.191.657-.436.987-.658l.5-.346.4-.315.4-.318.2-.159.051-.04.119-.109.107-.1a19.985,19.985,0,0,0,5.407-7.994,21.048,21.048,0,0,0,1.1-10.326,18.8,18.8,0,0,0-.617-2.769l-.224-.73c-.077-.247-.138-.382-.208-.579l-.2-.548-.1-.274-.2-.446a23.058,23.058,0,0,0-2.9-4.8,28.378,28.378,0,0,0-8.623-7.23c-.829-.46-1.679-.886-2.551-1.27-.823-.378-1.967-.806-2.648-1.046a34.673,34.673,0,0,0-5.623-1.421,44.865,44.865,0,0,0-11.383-.33,74.457,74.457,0,0,0-10.873,1.891c-7.015,1.716-13.554,4.084-19.693,5.837l-2.285.633-1.13.3-1.069.259c-1.6.387-2.958.671-4.4.915a48.456,48.456,0,0,1-8.315.691,38.748,38.748,0,0,1-3.939-.215c-.622-.069-1.326-.147-1.845-.242l-.943-.154-.569-.1-.283-.049-.071-.012c.23.027.03,0,.066,0l-.118-.025a44.662,44.662,0,0,1-7.185-2.1,45.961,45.961,0,0,1-6.363-3.025l-1.539-.911-1.322-.873c-.464-.288-.894-.62-1.329-.931s-.867-.615-1.27-.951a45.281,45.281,0,0,1-7.961-7.958,41.434,41.434,0,0,1-4.45-7.169c-.147-.323-.293-.627-.434-.925a69.72,69.72,0,0,0,11.877,4.326,92.99,92.99,0,0,0,15.556,2.752l.483.044.366.037.257.018,1.033.074,2.1.15c1.412.093,2.866.148,4.334.224l4.512.117c1.54-.01,3.1,0,4.682-.033a107.973,107.973,0,0,0,20.106-2.252,69.11,69.11,0,0,0,20.788-7.978c.412-.219.845-.505,1.277-.793l1.289-.858,1.28-.864.634-.435.5-.4,2-1.6.5-.4.063-.05c-.028.021.46-.349.286-.223l.136-.125.271-.251,1.083-1a50.182,50.182,0,0,0,7.553-8.892,63.46,63.46,0,0,0,5.432-9.919,90.613,90.613,0,0,0,3.686-10.229c.987-3.413,1.784-6.8,2.475-10.142.331-1.668.655-3.326.939-4.983.307-1.672.536-3.223.809-4.848a96.105,96.105,0,0,1,4.133-17.476,39.061,39.061,0,0,1,7.857-13.495,30.842,30.842,0,0,1,10.951-7.628,29.526,29.526,0,0,1,5.434-1.6,23.669,23.669,0,0,1,4.825-.352,20.4,20.4,0,0,1,6.7,1.336c.754.272,1.294.589,1.676.751l.571.27-.538-.33c-.364-.2-.861-.575-1.588-.931a20.975,20.975,0,0,0-6.735-2.122,24.932,24.932,0,0,0-5.106-.183,31.442,31.442,0,0,0-5.962,1.065,33.826,33.826,0,0,0-12.8,6.992,43.582,43.582,0,0,0-10.4,14.036,102.339,102.339,0,0,0-6.434,18.056c-.429,1.516-.856,3.145-1.309,4.653-.439,1.531-.917,3.067-1.4,4.61-.994,3.069-2.078,6.121-3.3,9.1a80.217,80.217,0,0,1-4.2,8.588,51.958,51.958,0,0,1-5.31,7.6,37.549,37.549,0,0,1-6.464,6.1l-.874.651-.218.164-.106.08c.077-.059.2-.151.158-.123l-.067.043-.541.346-2.157,1.378-.538.344-.458.224-.9.449-.889.453a8.451,8.451,0,0,1-.936.445,53.972,53.972,0,0,1-16.763,4.347,90.967,90.967,0,0,1-16.893.012c-1.363-.12-2.715-.282-4.038-.415l-3.93-.535c-1.293-.213-2.559-.4-3.807-.619l-1.855-.339-.914-.166-.226-.042-.057-.01c.033,0-.154-.023.061.006l-.12-.024-.475-.1a71.777,71.777,0,0,1-11.743-3.426l.26-.06.724-.168,1.523-.356,1.619-.381,1.7-.463a113.884,113.884,0,0,0,16.34-5.754,116.8,116.8,0,0,0,19.48-10.879,118.017,118.017,0,0,0,10.041-7.8l2.466-2.225c.823-.722,1.675-1.6,2.516-2.411l1.269-1.244,1.094-1.158,1.084-1.155.544-.581.137-.145.2-.208.072-.082.287-.33a110.7,110.7,0,0,0,8.816-11.24,107.1,107.1,0,0,0,7.554-12.745,112.689,112.689,0,0,0,10.053-29c.28-1.256.493-2.6.714-3.935l.326-1.991.227-1.831.226-1.833.029-.23.034-.247.012-.122.047-.488.093-.977c.119-1.3.225-2.611.293-3.927a91.644,91.644,0,0,0-.4-15.948,69.668,69.668,0,0,0-1.39-7.982c-.143-.661-.314-1.319-.494-1.975s-.343-1.3-.565-2l-.316-1.02c-.106-.343-.212-.689-.315-.961l-.661-1.857a48.63,48.63,0,0,0-8.272-14.206,42.444,42.444,0,0,0-5.868-5.74,38.4,38.4,0,0,0-6.96-4.458l-1.761-.813-1.928-.755L513.7,89.4c-.658-.175-1.321-.324-1.979-.483a32.365,32.365,0,0,0-7.966-.665,30.2,30.2,0,0,0-14.72,4.416c-.555.351-1.114.752-1.661,1.13a7.665,7.665,0,0,0-.716.548l-.644.528-.321.263-.262.217-.172.165-.684.656a14.818,14.818,0,0,0-1.292,1.363,26.347,26.347,0,0,0-3.993,6.089,25.753,25.753,0,0,0-2.322,13.45,22.985,22.985,0,0,0,1.661,6.434c.212.461.429.874.641,1.309l.16.322.129.253.105.171.418.677a10.835,10.835,0,0,0,.886,1.3,14.858,14.858,0,0,0,.965,1.209,21.159,21.159,0,0,0,19.714,7.018,16.335,16.335,0,0,0,7.882-4.067,18.626,18.626,0,0,0,4.273-6.051,18.382,18.382,0,0,0,1.488-5.714q.033-.642.064-1.237c.009-.395-.031-.776-.043-1.137a14.083,14.083,0,0,0-.242-1.952,13.13,13.13,0,0,0-.767-2.556l-.347-.843.283.867a13,13,0,0,1,.565,2.574,13.636,13.636,0,0,1,.092,1.92c-.015.353,0,.722-.041,1.1s-.1.776-.152,1.188a17.58,17.58,0,0,1-1.826,5.336,17.358,17.358,0,0,1-4.376,5.312,14.452,14.452,0,0,1-7.241,3.078,17.083,17.083,0,0,1-8.764-1.272,17.709,17.709,0,0,1-4.157-2.409,17.318,17.318,0,0,1-3.5-3.518,11.272,11.272,0,0,1-.707-1.041,7.758,7.758,0,0,1-.63-1.094l-.293-.561-.061-.117-.005-.01-.034-.083-.135-.333c-.175-.441-.372-.9-.531-1.333a19.145,19.145,0,0,1-.869-5.076,20.383,20.383,0,0,1,6.114-15.064l.505-.5c.175-.157.363-.3.543-.452l.545-.45.094-.078.019-.015.085-.059.34-.239.681-.478a5.137,5.137,0,0,1,.644-.415l1.17-.66a23.152,23.152,0,0,1,11.488-2.5,24.566,24.566,0,0,1,5.972.96l1.44.471,1.4.561,1.356.657,1.439.806a30.029,30.029,0,0,1,4.9,3.733,33,33,0,0,1,4.2,4.791,38.374,38.374,0,0,1,5.64,11.654l.456,1.68c.092.315.145.567.2.822l.171.771c.122.5.221,1.061.324,1.611s.208,1.1.284,1.66a58.124,58.124,0,0,1,.652,6.753,79.343,79.343,0,0,1-.7,13.752c-.146,1.146-.328,2.292-.52,3.435l-.148.857-.074.428-.018.107c.033-.227,0,0,0-.019l-.045.226-.365,1.811-.363,1.809-.4,1.617c-.268,1.072-.51,2.129-.849,3.238a97.35,97.35,0,0,1-10.562,24.361,89.937,89.937,0,0,1-7.224,10.318,92.868,92.868,0,0,1-8.075,8.829l-.257.255-.065.064c-.048.05.2-.207.061-.066l-.147.135-.587.538-1.168,1.07c-.383.347-.784.729-1.148,1.044l-1.037.858c-.707.571-1.319,1.137-2.078,1.7q-1.1.851-2.178,1.684a98.188,98.188,0,0,1-8.767,5.8,95.816,95.816,0,0,1-16.6,7.679,91.338,91.338,0,0,1-13.518,3.63l-1.384.27-1.314.2-1.233.191-.586.091-.285.045-.065.01.422-.067-.04,0-.158.016-4.268.417-2.337.228-.511.05-.705.069.261,1.908q-.507,1.119-.954,2.2a51.24,51.24,0,0,0-3.858,13.786c0,.019,0,.036-.005.056l-.368.4-.292.316c-.012-.261-.027-.517-.026-.8a48.768,48.768,0,0,1,2.294-14.554c.313-1.059.677-2.161,1.063-3.281.728-2.113,1.571-4.32,2.546-6.632,1.465-3.556,3.374-7.249,5.3-11.146a241.922,241.922,0,0,0,11.133-26.708c1.71-4.994,3.333-10.238,4.66-15.725.331-1.371.652-2.756.95-4.153l.228-1.05.3-1.22c.156-.669.3-1.33.448-2.03a69.708,69.708,0,0,0,1.2-8.478c.117-1.442.184-2.9.217-4.36l.013-.978,0-1.176,0-1.179-.052-1.036q-.055-1.184-.112-2.375c-.049-.769-.142-1.447-.208-2.177-.107-1.417-.373-2.925-.587-4.413A72.391,72.391,0,0,0,465,125.762c-.406-1.48-.963-2.919-1.469-4.378-.267-.726-.582-1.435-.87-2.155s-.587-1.438-.931-2.137a70.52,70.52,0,0,0-10.086-15.951,72.805,72.805,0,0,0-6.7-6.887,74.017,74.017,0,0,0-7.648-5.941,66.611,66.611,0,0,0-73.932.007,69.981,69.981,0,0,0-14.345,12.83A70.365,70.365,0,0,0,338.932,117.1c-.344.7-.644,1.416-.931,2.137s-.6,1.429-.87,2.154c-.506,1.459-1.063,2.9-1.47,4.377a73.28,73.28,0,0,0-2.088,8.877c-.213,1.492-.478,2.973-.59,4.464-.067.744-.161,1.485-.209,2.227s-.072,1.484-.107,2.223a72.376,72.376,0,0,0,.17,8.775,69.668,69.668,0,0,0,1.2,8.476q.215,1.033.455,2.056l.284,1.161.235,1.082c.317,1.471.622,2.771.952,4.153,1.327,5.487,2.946,10.731,4.659,15.724a242.049,242.049,0,0,0,11.134,26.72c1.9,3.856,3.823,7.573,5.289,11.136.975,2.313,1.818,4.522,2.546,6.636.385,1.12.748,2.22,1.061,3.279a48.743,48.743,0,0,1,2.289,14.555c0,.532-.026,1.011-.057,1.463l-.258-.279-.3-.327c-.021-.268-.038-.534-.076-.825a51.243,51.243,0,0,0-3.863-13.783c-.434-1.048-.927-2.136-1.448-3.242l.119-.865-.552-.054-.02-.043c-.381-.021-.758-.043-1.118-.068L353.5,229.1l-3.261-.319c-.946-.123-1.478-.212-1.478-.212l0,.053-.244-.038-1.233-.191-1.315-.2-1.384-.27a91.4,91.4,0,0,1-13.518-3.63,95.843,95.843,0,0,1-16.6-7.679,98.188,98.188,0,0,1-8.767-5.8q-1.08-.834-2.178-1.684c-.759-.566-1.372-1.132-2.078-1.7l-1.037-.858c-.364-.315-.765-.7-1.148-1.044l-1.168-1.07-.587-.538-.147-.135c-.141-.141.109.116.061.066l-.065-.064-.257-.255a92.735,92.735,0,0,1-8.075-8.829,89.937,89.937,0,0,1-7.224-10.318,97.35,97.35,0,0,1-10.562-24.361c-.339-1.109-.582-2.166-.849-3.238l-.4-1.617-.363-1.809-.365-1.811-.045-.226c0,.021-.036-.208,0,.019l-.018-.107-.074-.428-.148-.857c-.192-1.143-.374-2.289-.52-3.435a79.247,79.247,0,0,1-.7-13.752,58.13,58.13,0,0,1,.652-6.753c.076-.559.175-1.111.284-1.66s.2-1.114.324-1.611l.171-.771c.055-.255.108-.507.2-.822l.456-1.68a38.375,38.375,0,0,1,5.64-11.654,33.008,33.008,0,0,1,4.2-4.791,30.031,30.031,0,0,1,4.905-3.733l1.439-.806,1.356-.657,1.4-.561,1.44-.471a24.566,24.566,0,0,1,5.972-.96,23.154,23.154,0,0,1,11.488,2.5l1.17.66a5.137,5.137,0,0,1,.644.415l.681.478.34.239.085.059.019.015.094.078.545.45c.18.152.368.3.543.452l.505.5a20.383,20.383,0,0,1,6.114,15.064,19.145,19.145,0,0,1-.869,5.076c-.159.433-.356.892-.531,1.333l-.135.333-.034.083,0,.01-.062.117-.293.561a7.858,7.858,0,0,1-.63,1.094,11.272,11.272,0,0,1-.707,1.041,17.318,17.318,0,0,1-3.5,3.518,17.709,17.709,0,0,1-4.157,2.409,17.083,17.083,0,0,1-8.764,1.272,14.452,14.452,0,0,1-7.241-3.078,17.358,17.358,0,0,1-4.376-5.312,17.58,17.58,0,0,1-1.826-5.336q-.08-.618-.152-1.188c-.038-.382-.026-.751-.041-1.1a13.632,13.632,0,0,1,.092-1.92,13,13,0,0,1,.565-2.574l.283-.867-.347.843a13.136,13.136,0,0,0-.767,2.556,14.088,14.088,0,0,0-.242,1.952c-.012.361-.052.742-.043,1.137s.042.809.064,1.237a18.384,18.384,0,0,0,1.488,5.714,18.626,18.626,0,0,0,4.273,6.051,16.335,16.335,0,0,0,7.882,4.067,21.159,21.159,0,0,0,19.714-7.018,14.858,14.858,0,0,0,.965-1.209,10.835,10.835,0,0,0,.886-1.3l.418-.677.105-.171.129-.253.16-.322c.212-.435.429-.848.641-1.309a22.985,22.985,0,0,0,1.661-6.434,25.744,25.744,0,0,0-2.323-13.45,26.311,26.311,0,0,0-3.992-6.089,14.818,14.818,0,0,0-1.292-1.363l-.684-.656-.172-.165-.262-.217-.321-.263-.644-.528a7.8,7.8,0,0,0-.716-.548c-.547-.378-1.106-.779-1.661-1.13a30.2,30.2,0,0,0-14.72-4.416,32.365,32.365,0,0,0-7.966.665c-.658.159-1.321.308-1.979.483l-1.96.615-1.928.755-1.761.813a38.4,38.4,0,0,0-6.96,4.458,42.441,42.441,0,0,0-5.868,5.74,48.631,48.631,0,0,0-8.272,14.206l-.661,1.857c-.1.272-.209.618-.315.961l-.316,1.02c-.222.693-.388,1.34-.565,2s-.351,1.314-.494,1.975a69.456,69.456,0,0,0-1.39,7.982,91.545,91.545,0,0,0-.4,15.948c.067,1.316.174,2.624.292,3.927l.094.977.047.488.012.122.034.247.029.23.226,1.833.227,1.831.325,1.991c.222,1.33.435,2.679.715,3.935a112.688,112.688,0,0,0,10.053,29,106.964,106.964,0,0,0,7.554,12.745,110.7,110.7,0,0,0,8.816,11.24l.287.33.072.082.2.208.137.145.544.581,1.084,1.155,1.094,1.158,1.269,1.244c.84.806,1.693,1.689,2.516,2.411l2.466,2.225a118.017,118.017,0,0,0,10.041,7.8,116.8,116.8,0,0,0,19.48,10.879,113.884,113.884,0,0,0,16.34,5.754l1.7.463,1.619.381,1.523.356.724.168.26.06a71.777,71.777,0,0,1-11.743,3.426l-.476.1-.119.024c.215-.029.027,0,.061-.006l-.057.01-.227.042-.913.166-1.855.339c-1.248.221-2.514.406-3.807.619l-3.93.535c-1.324.133-2.675.3-4.038.415a90.967,90.967,0,0,1-16.893-.012A53.972,53.972,0,0,1,284.426,253a8.453,8.453,0,0,1-.936-.445l-.89-.453-.9-.449-.458-.224-.538-.344-2.157-1.378-.541-.346-.067-.043c-.044-.03.1.08.177.137l-.017-.013-.108-.081-.218-.164-.874-.651a37.553,37.553,0,0,1-6.464-6.1,51.967,51.967,0,0,1-5.31-7.6,80.217,80.217,0,0,1-4.2-8.588c-1.225-2.976-2.309-6.028-3.3-9.1-.485-1.543-.963-3.079-1.4-4.61-.453-1.508-.88-3.137-1.309-4.653a102.34,102.34,0,0,0-6.434-18.056,43.581,43.581,0,0,0-10.4-14.036,33.826,33.826,0,0,0-12.8-6.992,31.442,31.442,0,0,0-5.962-1.065,24.932,24.932,0,0,0-5.106.183,20.975,20.975,0,0,0-6.735,2.122c-.727.356-1.224.727-1.588.931l-.538.33.571-.27C206.3,170.884,206.842,170.567,207.6,170.295ZM427.71,216.681a8.326,8.326,0,0,1-16.451,2.583Zm-55.359,0,16.45,2.583a8.326,8.326,0,1,1-16.45-2.583Z" fill="#fff"/>
    <circle id="Ellipse_21" data-name="Ellipse 21" cx="0.921" cy="0.921" r="0.921" transform="translate(218.547 175.344)" fill="#fff"/>
    <path id="Path_83" data-name="Path 83" d="M227.683,181.806a1.647,1.647,0,1,0,1.647-1.647A1.647,1.647,0,0,0,227.683,181.806Z" fill="#fff"/>
    <path id="Path_84" data-name="Path 84" d="M238.01,191.217a2.256,2.256,0,1,0-2.256,2.256A2.256,2.256,0,0,0,238.01,191.217Z" fill="#fff"/>
    <path id="Path_85" data-name="Path 85" d="M239.232,204.844a2.728,2.728,0,1,0-2.728-2.728A2.728,2.728,0,0,0,239.232,204.844Z" fill="#fff"/>
    <path id="Path_86" data-name="Path 86" d="M241.2,216.508A3.107,3.107,0,1,0,238.1,213.4,3.107,3.107,0,0,0,241.2,216.508Z" fill="#fff"/>
    <path id="Path_87" data-name="Path 87" d="M242.919,228.124a3.4,3.4,0,1,0-3.4-3.4A3.4,3.4,0,0,0,242.919,228.124Z" fill="#fff"/>
    <circle id="Ellipse_22" data-name="Ellipse 22" cx="3.603" cy="3.603" r="3.603" transform="matrix(0.987, -0.159, 0.159, 0.987, 241.168, 232.949)" fill="#fff"/>
    <circle id="Ellipse_23" data-name="Ellipse 23" cx="3.728" cy="3.728" r="3.728" transform="translate(245.43 242.975)" fill="#fff"/>
    <path id="Path_88" data-name="Path 88" d="M255.058,260.281a3.776,3.776,0,1,0-3.777-3.776A3.777,3.777,0,0,0,255.058,260.281Z" fill="#fff"/>
    <path id="Path_89" data-name="Path 89" d="M262.886,268.6a3.754,3.754,0,1,0-3.754-3.754A3.754,3.754,0,0,0,262.886,268.6Z" fill="#fff"/>
    <path id="Path_90" data-name="Path 90" d="M275.84,271.517a3.66,3.66,0,1,0-3.66,3.66A3.659,3.659,0,0,0,275.84,271.517Z" fill="#fff"/>
    <path id="Path_91" data-name="Path 91" d="M285.974,276.505a3.488,3.488,0,1,0-3.489,3.489A3.489,3.489,0,0,0,285.974,276.505Z" fill="#fff"/>
    <path id="Path_92" data-name="Path 92" d="M296.652,279.92a3.237,3.237,0,1,0-3.237,3.236A3.237,3.237,0,0,0,296.652,279.92Z" fill="#fff"/>
    <path id="Path_93" data-name="Path 93" d="M307.591,281.908a2.9,2.9,0,1,0-2.9,2.9A2.9,2.9,0,0,0,307.591,281.908Z" fill="#fff"/>
    <path id="Path_94" data-name="Path 94" d="M318.578,282.6a2.451,2.451,0,1,0-2.451,2.451A2.451,2.451,0,0,0,318.578,282.6Z" fill="#fff"/>
    <path id="Path_95" data-name="Path 95" d="M329.478,282.062a1.907,1.907,0,1,0-1.907,1.908A1.907,1.907,0,0,0,329.478,282.062Z" fill="#fff"/>
    <path id="Path_96" data-name="Path 96" d="M340.125,280.33a1.227,1.227,0,1,0-1.227,1.228A1.227,1.227,0,0,0,340.125,280.33Z" fill="#fff"/>
    <path id="Path_97" data-name="Path 97" d="M349.961,277.734a.378.378,0,1,0-.377-.377A.377.377,0,0,0,349.961,277.734Z" fill="#fff"/>
    <path id="Path_98" data-name="Path 98" d="M262.293,317.37a1.436,1.436,0,1,0,1.437-1.436A1.437,1.437,0,0,0,262.293,317.37Z" fill="#fff"/>
    <path id="Path_99" data-name="Path 99" d="M251.4,313.957a2.425,2.425,0,1,0,2.425-2.425A2.425,2.425,0,0,0,251.4,313.957Z" fill="#fff"/>
    <path id="Path_100" data-name="Path 100" d="M257.858,303.685a3.111,3.111,0,1,0-3.111,3.111A3.11,3.11,0,0,0,257.858,303.685Z" fill="#fff"/>
    <path id="Path_101" data-name="Path 101" d="M268.213,299.264a3.541,3.541,0,1,0-3.54,3.54A3.541,3.541,0,0,0,268.213,299.264Z" fill="#fff"/>
    <path id="Path_102" data-name="Path 102" d="M275.668,297.046a3.751,3.751,0,1,0,3.751,3.751A3.751,3.751,0,0,0,275.668,297.046Z" fill="#fff"/>
    <path id="Path_103" data-name="Path 103" d="M289.987,304.368a3.753,3.753,0,1,0-3.754,3.753A3.754,3.754,0,0,0,289.987,304.368Z" fill="#fff"/>
    <path id="Path_104" data-name="Path 104" d="M296.483,305.218a3.549,3.549,0,1,0,3.549,3.549A3.549,3.549,0,0,0,296.483,305.218Z" fill="#fff"/>
    <circle id="Ellipse_24" data-name="Ellipse 24" cx="3.122" cy="3.122" r="3.122" transform="translate(303.761 309.669)" fill="#fff"/>
    <path id="Path_105" data-name="Path 105" d="M317.745,312.855a2.435,2.435,0,1,0,2.435,2.435A2.436,2.436,0,0,0,317.745,312.855Z" fill="#fff"/>
    <path id="Path_106" data-name="Path 106" d="M328.866,317.505a1.445,1.445,0,1,0-1.445-1.444A1.445,1.445,0,0,0,328.866,317.505Z" fill="#fff"/>
    <path id="Path_107" data-name="Path 107" d="M362.955,357.093a1.684,1.684,0,1,0-1.685,1.685A1.684,1.684,0,0,0,362.955,357.093Z" fill="#fff"/>
    <circle id="Ellipse_25" data-name="Ellipse 25" cx="2.809" cy="2.809" r="2.809" transform="translate(350.665 347.734)" fill="#fff"/>
    <path id="Path_108" data-name="Path 108" d="M342.265,348.313a3.548,3.548,0,1,0-3.547-3.547A3.547,3.547,0,0,0,342.265,348.313Z" fill="#fff"/>
    <path id="Path_109" data-name="Path 109" d="M341.046,335.765a3.97,3.97,0,1,0-3.971,3.97A3.971,3.971,0,0,0,341.046,335.765Z" fill="#fff"/>
    <path id="Path_110" data-name="Path 110" d="M349.7,335.974a4.113,4.113,0,1,0-4.113-4.113A4.113,4.113,0,0,0,349.7,335.974Z" fill="#fff"/>
    <path id="Path_111" data-name="Path 111" d="M366.309,328.842a3.99,3.99,0,1,0-3.99,3.989A3.989,3.989,0,0,0,366.309,328.842Z" fill="#fff"/>
    <path id="Path_112" data-name="Path 112" d="M377.861,323.811a3.587,3.587,0,1,0-3.587,3.588A3.587,3.587,0,0,0,377.861,323.811Z" fill="#fff"/>
    <path id="Path_113" data-name="Path 113" d="M388.025,316.759a2.865,2.865,0,1,0-2.865,2.865A2.866,2.866,0,0,0,388.025,316.759Z" fill="#fff"/>
    <path id="Path_114" data-name="Path 114" d="M396.4,307.944a1.732,1.732,0,1,0-1.732,1.732A1.732,1.732,0,0,0,396.4,307.944Z" fill="#fff"/>
    <path id="Path_115" data-name="Path 115" d="M400,302.754c.023,0,.046.007.069.007a1.188,1.188,0,0,0,0-2.376c-.023,0-.046.005-.069.007s-.046-.007-.069-.007a1.188,1.188,0,0,0,0,2.376C399.954,302.761,399.977,302.756,400,302.754Z" fill="#fff"/>
    <path id="Path_116" data-name="Path 116" d="M363.239,365.944a1.188,1.188,0,1,0-1.188-1.188A1.188,1.188,0,0,0,363.239,365.944Z" fill="#fff"/>
  </g>
</svg>
